<?xml version="1.0" ?><svg viewBox="0 0 32 32" xmlns="http://www.w3.org/2000/svg"><title/><g data-name="Layer 50" id="Layer_50"><path d="M25.26,5.33a1,1,0,0,0-1.41,0l-5.3,5.3a1,1,0,0,0-.24.38L17.2,14.25a1,1,0,0,0,1.27,1.27l3.24-1.11a1,1,0,0,0,.38-.24l5.3-5.3a1,1,0,0,0,0-1.41ZM20.84,12.6,19.76,13l.37-1.09,4.43-4.43.71.71Z"/><path d="M26.83,3.76a1,1,0,0,0-1.41,1.41L27.55,7.3A1,1,0,0,0,29,5.89Z"/><path d="M30.63,4.22,28.5,2.09a1,1,0,0,0-1.41,1.41l2.13,2.13a1,1,0,0,0,1.41-1.41Z"/><path d="M24.59,27.33H5.4V8.13H20.34l2-2H4.4a1,1,0,0,0-1,1v21.2a1,1,0,0,0,1,1h21.2a1,1,0,0,0,1-1V10.38l-2,2Z"/></g></svg>